<?xml version="1.0" encoding="UTF-8" standalone="no"?>
<svg width="51px" height="29px" viewBox="0 0 51 29" version="1.1" xmlns="http://www.w3.org/2000/svg" xmlns:xlink="http://www.w3.org/1999/xlink" xmlns:sketch="http://www.bohemiancoding.com/sketch/ns">
    <!-- Generator: Sketch 3.3.2 (12043) - http://www.bohemiancoding.com/sketch -->
    <title>Logo</title>
    <desc>Created with Sketch.</desc>
    <defs></defs>
    <g id="Welcome" stroke="none" stroke-width="1" fill="none" fill-rule="evenodd" sketch:type="MSPage">
        <g id="Desktop-HD" sketch:type="MSArtboardGroup" transform="translate(-249.000000, -52.000000)" stroke-width="3">
            <g id="Header" sketch:type="MSLayerGroup">
                <g id="Logo" transform="translate(251.000000, 54.000000)" sketch:type="MSShapeGroup">
                    <rect id="Rectangle-35" stroke="#BBD9B8" x="0" y="0" width="46.7314286" height="25.0551471" rx="156"></rect>
                    <path d="M5.0744295,10.8951272 C4.93935412,11.4641095 4.86785714,12.0576595 4.86785714,12.6678822 C4.86785714,16.8880406 8.29971302,20.324735 12.5331218,20.324735 L33.8743143,20.324735 C38.1060741,20.324735 41.5395789,16.8966453 41.5395789,12.6678822 C41.5395789,8.44772386 38.107723,5.01102941 33.8743143,5.01102941 L21.7160735,5.01102941 C21.9785905,5.82833493 22.1203465,6.69925405 22.1203465,7.60257959 C22.1203465,12.2867479 18.3210604,16.0840165 13.6413062,16.0840165 L12.889169,16.0840165 C9.37519313,16.0840165 6.36048071,13.9404443 5.0744295,10.8951272 Z" id="Rectangle-6-Copy-4" stroke="#FFFFFF"></path>
                </g>
            </g>
        </g>
    </g>
</svg>